External Loads File
version=1
nRows=54
nColumns=13
Range=5.000000e-03-10 seconds
endheader
time 	forceRightX 	forceRightY 	forceRightZ 	pointRightX 	pointRightY 	pointRightZ 	forceLeftX 	forceLeftY 	forceLeftZ 	pointLeftX 	pointLeftY 	pointLeftZ 		
0.005000 23.822922 199.367507 -0.000000 0.124532 0.242485 -0.142458 -119.812723 110.746798 -0.000000 0.411403 0.406056 -0.370508
0.010000 23.398495 197.844284 -0.000000 0.124620 0.242281 -0.142443 -118.944232 110.111639 -0.000000 0.411346 0.406177 -0.370510
0.015000 22.964765 196.328074 -0.000000 0.124714 0.242117 -0.142457 -118.153389 109.445560 -0.000000 0.411295 0.406361 -0.370514
0.020000 22.495341 194.842233 -0.000000 0.124794 0.241937 -0.142459 -117.478246 108.737046 -0.000000 0.411105 0.406558 -0.370638
0.025000 22.057468 193.399823 -0.000000 0.124924 0.241617 -0.142325 -116.861890 108.041990 -0.000000 0.411101 0.406681 -0.370588
0.030000 21.659481 192.033714 -0.000000 0.125070 0.241467 -0.142443 -116.274458 107.377155 -0.000000 0.411125 0.406979 -0.370386
0.035000 21.305281 190.780866 -0.000000 0.125189 0.241251 -0.142443 -115.716540 106.739547 -0.000000 0.411068 0.407198 -0.370382
0.040000 21.000967 189.669382 -0.000000 0.125311 0.241036 -0.142426 -115.213457 106.110040 -0.000000 0.410992 0.407443 -0.370394
0.045000 20.800477 188.708187 -0.000000 0.125450 0.240834 -0.142471 -114.761157 105.499732 -0.000000 0.410911 0.407659 -0.370390
0.050000 20.638538 187.902749 -0.000000 0.125564 0.240548 -0.142429 -114.398282 104.863836 -0.000000 0.410838 0.407937 -0.370384
0.055000 20.569132 187.228580 -0.000000 0.125689 0.240257 -0.142398 -114.069383 104.243725 -0.000000 0.410770 0.408209 -0.370341
0.060000 20.536192 186.660378 -0.000000 0.125814 0.239905 -0.142364 -113.763652 103.617756 -0.000000 0.410675 0.408470 -0.370320
0.065000 20.570611 186.154469 -0.000000 0.125945 0.239663 -0.142388 -113.417780 103.017128 -0.000000 0.410538 0.408744 -0.370370
0.070000 20.580197 185.677137 -0.000000 0.126083 0.239401 -0.142431 -113.040703 102.398622 -0.000000 0.410401 0.409042 -0.370422
0.075000 20.578917 185.193084 -0.000000 0.126248 0.239172 -0.142391 -112.604453 101.779568 -0.000000 0.410294 0.409342 -0.370391
0.080000 20.534846 184.692093 -0.000000 0.126373 0.238927 -0.142408 -112.144417 101.135455 -0.000000 0.410198 0.409676 -0.370340
0.085000 20.491523 184.168762 -0.000000 0.126484 0.238664 -0.142410 -111.679354 100.469682 -0.000000 0.410108 0.409960 -0.370314
0.090000 20.403362 183.633532 -0.000000 0.126599 0.238336 -0.142385 -111.267437 99.722883 -0.000000 0.409985 0.410250 -0.370335
0.095000 20.306685 183.091713 -0.000000 0.126695 0.237954 -0.142354 -110.887363 98.894711 -0.000000 0.409873 0.410550 -0.370389
0.100000 20.270102 182.541410 -0.000000 0.126791 0.237707 -0.142382 -110.469503 98.021517 -0.000000 0.409765 0.410880 -0.370401
0.105000 20.218907 181.985649 -0.000000 0.126903 0.237422 -0.142388 -110.016102 97.063460 -0.000000 0.409666 0.411195 -0.370416
0.110000 20.200264 181.404604 -0.000000 0.127008 0.237188 -0.142421 -109.481661 96.059037 -0.000000 0.409578 0.411469 -0.370376
0.115000 20.152105 180.789325 -0.000000 0.127091 0.236982 -0.142437 -108.903413 94.984739 -0.000000 0.409507 0.411799 -0.370320
0.120000 19.986193 180.143287 -0.000000 0.127214 0.236762 -0.142386 -108.353849 93.803941 -0.000000 0.409173 0.412102 -0.370656
0.125000 19.828279 179.460917 -0.000000 0.127324 0.236488 -0.142359 -107.805601 92.614213 -0.000000 0.409069 0.412407 -0.370656
0.130000 19.629143 178.763272 -0.000000 0.127431 0.236160 -0.142379 -107.312770 91.420310 -0.000000 0.408999 0.412697 -0.370611
0.135000 19.396955 178.067591 -0.000000 0.127548 0.235864 -0.142378 -106.881707 90.261243 -0.000000 0.408902 0.413005 -0.370619
0.140000 19.133891 177.404643 -0.000000 0.127642 0.235553 -0.142363 -106.519111 89.149598 -0.000000 0.408793 0.413357 -0.370617
0.145000 18.922921 176.806503 -0.000000 0.127738 0.235285 -0.142338 -106.189213 88.132949 -0.000000 0.408660 0.413662 -0.370648
0.150000 18.759150 176.296747 -0.000000 0.127842 0.235039 -0.142293 -105.881123 87.222353 -0.000000 0.408561 0.413959 -0.370666
0.155000 18.583340 175.871245 -0.000000 0.127964 0.234781 -0.142353 -105.589536 86.414510 -0.000000 0.408435 0.414259 -0.370674
0.160000 18.359823 175.509432 -0.000000 0.128099 0.234504 -0.142346 -105.305101 85.705428 -0.000000 0.408321 0.414612 -0.370655
0.165000 18.112760 175.194695 -0.000000 0.128222 0.234184 -0.142350 -105.024841 85.088993 -0.000000 0.408210 0.414936 -0.370624
0.170000 17.874683 174.916527 -0.000000 0.128335 0.233932 -0.142342 -104.764472 84.543710 -0.000000 0.408058 0.415241 -0.370667
0.175000 17.567415 174.670654 -0.000000 0.128449 0.233643 -0.142354 -104.580477 83.989511 -0.000000 0.407887 0.415603 -0.370690
0.180000 17.263476 174.438798 -0.000000 0.128544 0.233351 -0.142373 -104.430368 83.451501 -0.000000 0.407728 0.415936 -0.370654
0.185000 16.964901 174.221254 -0.000000 0.128650 0.233036 -0.142403 -104.289656 82.921297 -0.000000 0.407583 0.416250 -0.370633
0.190000 16.732045 174.021836 -0.000000 0.128887 0.232768 -0.142143 -104.104651 82.425786 -0.000000 0.407553 0.416543 -0.370528
0.195000 16.580546 173.849940 -0.000000 0.128983 0.232505 -0.142077 -103.849332 81.965105 -0.000000 0.407405 0.416837 -0.370582
0.200000 16.515995 173.708199 -0.000000 0.129098 0.232240 -0.142093 -103.508579 81.543061 -0.000000 0.407271 0.417142 -0.370612
0.205000 16.570443 173.584743 -0.000000 0.129181 0.231998 -0.142106 -103.063411 81.189428 -0.000000 0.407152 0.417452 -0.370607
0.210000 16.711828 173.458763 -0.000000 0.129260 0.231721 -0.142122 -102.531466 80.899757 -0.000000 0.407051 0.417750 -0.370545
0.215000 16.988563 173.280734 -0.000000 0.129325 0.231549 -0.142108 -101.890042 80.722195 -0.000000 0.406944 0.417988 -0.370523
0.220000 17.301249 173.004150 -0.000000 0.129408 0.231411 -0.142131 -101.187046 80.614817 -0.000000 0.406848 0.418220 -0.370531
0.225000 17.627486 172.592458 -0.000000 0.129489 0.231271 -0.142106 -100.453127 80.558784 -0.000000 0.406765 0.418410 -0.370523
0.230000 17.957322 172.041176 -0.000000 0.129532 0.231110 -0.142094 -99.732536 80.519333 -0.000000 0.406692 0.418577 -0.370515
0.235000 18.269733 171.371723 -0.000000 0.129605 0.230955 -0.142085 -99.070185 80.457521 -0.000000 0.406642 0.418757 -0.370542
0.240000 18.573465 170.620600 -0.000000 0.129644 0.230800 -0.142087 -98.480340 80.364133 -0.000000 0.406588 0.418917 -0.370546
0.245000 18.882264 169.845328 -0.000000 0.129683 0.230675 -0.142083 -97.977311 80.227419 -0.000000 0.406562 0.419045 -0.370568
0.250000 19.178331 169.115057 -0.000000 0.129714 0.230577 -0.142066 -97.599143 80.013573 -0.000000 0.406545 0.419205 -0.370568
0.255000 19.489947 168.478335 -0.000000 0.129747 0.230482 -0.142088 -97.352063 79.736573 -0.000000 0.406544 0.419317 -0.370557
0.260000 19.793191 167.971904 -0.000000 0.129778 0.230411 -0.142084 -97.252002 79.406847 -0.000000 0.406533 0.419414 -0.370554
0.265000 20.074408 167.620186 -0.000000 0.129800 0.230369 -0.142104 -97.295997 79.061756 -0.000000 0.406532 0.419494 -0.370560
0.270000 20.278113 167.433251 -0.000000 0.129820 0.230291 -0.142074 -97.472098 78.735650 -0.000000 0.406544 0.419526 -0.370553
